<?xml version="1.0" encoding="UTF-8"?>
<svg width="816px" height="877px" viewBox="0 0 816 877" version="1.1" xmlns="http://www.w3.org/2000/svg" xmlns:xlink="http://www.w3.org/1999/xlink">
    <title>--STYLE/Elements/Plumbing Shield Icon White</title>
    <g id="--STYLE/Elements/Plumbing-Shield-Icon-White" stroke="none" stroke-width="1" fill="none" fill-rule="evenodd">
        <path d="M667.123929,0 C671.37803,0 674.888093,3.32938239 675.112738,7.57754716 C678.940537,79.9635475 736.295883,138.321646 808.504549,143.473004 C812.625889,143.76702 815.830378,147.146151 815.935128,151.24932 L815.935128,151.501419 L815.910653,155.517738 C814.375051,332.056088 783.15918,472.330734 722.055351,576.304112 C644.967712,707.475307 541.490444,807.441813 411.728517,876.070885 C410.634635,876.649422 409.495041,876.94636 408.374616,877.00078 L407.901371,877.00987 C406.673833,877.00987 405.415248,876.707277 404.211975,876.070885 C274.450048,807.441813 170.97278,707.475307 93.8851407,576.304112 C32.3263767,471.556623 1.1020182,329.964995 0.000151608428,151.566182 C-0.0251597605,147.416966 3.12182303,143.952316 7.22414342,143.55446 L7.47648072,143.533953 C80.0519783,138.771606 137.86078,80.2696745 141.704767,7.57754716 C141.924919,3.41434573 145.300387,0.133557994 149.439243,0 L667.123929,0 Z M399.952753,15.9987597 L157.100753,15.9987597 L156.884795,18.0385395 C148.688723,90.4065643 92.2024093,148.215405 20.3051876,158.290059 L18.1218006,158.580706 L16.0657525,158.82376 L16.1007378,161.971071 C18.277943,329.373788 47.6967285,462.747303 104.169704,562.124341 L105.889288,565.12536 L107.679391,568.197407 C179.527678,690.453398 274.594014,784.915466 392.96851,851.697567 L396.562751,853.712795 L399.952753,855.58876 L399.952753,654.72676 L398.270166,654.686682 C358.031874,653.381691 319.851379,643.93558 285.322261,627.941927 C281.892485,626.847624 279.408753,623.635245 279.408753,619.84276 C279.408753,615.148339 283.214332,611.34276 287.908753,611.34276 C290.477961,611.34276 293.810917,613.035599 296.302092,615.337876 L295.863929,615.144813 C328.790953,629.797085 365.12345,638.186086 403.344588,638.805784 L407.856753,638.84276 L407.925361,638.84276 L412.475521,638.805763 C562.974702,636.365648 683.908753,513.571974 683.908753,362.84276 C683.908753,325.033441 676.305994,288.999506 662.545757,256.186516 C660.631188,254.628505 659.408753,252.25339 659.408753,249.59276 C659.408753,244.898339 663.214332,241.09276 667.908753,241.09276 C671.64528,241.09276 674.818694,243.503738 675.958184,246.854885 L675.849016,246.604972 C690.139491,279.482624 698.548704,315.507496 699.757365,353.349983 L699.869647,358.014922 L699.908753,362.84276 C699.908753,520.716113 574.511054,649.620808 417.43756,654.688889 L415.988753,654.72376 L415.988753,855.58876 L419.377741,853.712795 C536.985146,788.179695 631.766557,695.541419 703.809298,575.687533 L705.985451,572.047267 L708.261101,568.197407 C767.183706,467.935567 797.782891,332.077307 799.856984,160.606445 L799.877753,158.71876 L797.817443,158.464449 C725.987957,149.006143 669.299367,91.9562347 660.189712,20.1782136 L659.928259,17.9986478 L659.717753,15.9987597 L415.988753,15.9987597 L415.988753,70.9607597 L417.627618,71.0014512 C453.141181,72.1628359 487.050529,79.6656898 518.260043,92.4141816 L518.311865,92.4358771 C518.634631,92.5454302 518.948421,92.6744195 519.251841,92.821451 C519.347965,92.8611321 519.444547,92.9010621 519.541103,92.9410424 L519.526945,92.9611971 C522.133806,94.3475485 523.908753,97.0914937 523.908753,100.25 C523.908753,104.806349 520.215102,108.5 515.658753,108.5 C513.553145,108.5 511.631776,107.711182 510.174037,106.412939 L510.813556,106.6676 C480.369232,94.4240907 447.238013,87.4528974 412.549879,86.8809928 L407.908753,86.8427597 C255.478162,86.8427597 131.908753,210.412169 131.908753,362.84276 C131.908753,398.838501 138.799542,433.224813 151.333953,464.754528 C153.668896,467.548518 155.408753,471.105058 155.408753,473.59276 C155.408753,478.28718 151.603173,482.09276 146.908753,482.09276 C143.621048,482.09276 140.769302,480.226197 139.355428,477.494986 L139.310366,477.557714 L139.310366,477.557714 C125.420532,445.091934 117.250411,409.595753 116.060195,372.337332 L115.947872,367.671514 L115.908753,362.84276 C115.908753,206.381374 238.966024,78.6615534 393.576011,71.1883961 L398.270725,70.9988375 L399.952753,70.9577597 L399.952753,15.9987597 Z M414.221753,426.01676 C414.48501,426.380471 419.967713,433.951666 427.67151,445.487164 L428.786838,447.161711 C429.634181,448.437321 430.505381,449.756667 431.396753,451.11576 C433.804753,454.78776 432.780753,459.71776 429.108753,462.12476 C425.438753,464.53276 420.508753,463.50876 418.100753,459.83676 C414.160753,453.83076 410.591753,448.57076 407.768753,444.48176 C388.453753,472.39176 354.254753,526.54576 354.254753,549.40976 C354.254753,578.92776 378.268753,602.94176 407.786753,602.94176 C437.304753,602.94176 461.318753,578.92776 461.318753,549.40976 C461.318753,542.82476 457.960753,526.05176 435.467753,487.71176 C433.246753,483.92476 434.514753,479.05376 438.302753,476.83176 C442.088753,474.60976 446.959753,475.87876 449.182753,479.66676 C468.048753,511.82376 477.219753,534.63776 477.219753,549.40976 C477.219753,587.69576 446.072753,618.84276 407.786753,618.84276 C369.500753,618.84276 338.353753,587.69576 338.353753,549.40976 C338.353753,513.89976 394.902753,434.90776 401.349753,426.01676 C404.472753,421.71276 411.099753,421.71276 414.221753,426.01676 Z M427.239753,492.54076 C450.009753,531.35376 451.778753,545.88076 451.778753,549.40776 C451.778753,573.66476 432.043753,593.39976 407.786753,593.39976 C403.395753,593.39976 399.836753,589.83976 399.836753,585.44976 C399.836753,581.05976 403.394753,577.49976 407.786753,577.49976 C423.275753,577.49976 435.877753,564.89776 435.877753,549.40876 C435.876073,549.3782 435.869605,549.275307 435.848087,549.093031 L435.828967,548.941329 C435.495013,546.43923 432.931453,533.66706 413.524753,500.58576 C411.303753,496.79876 412.571753,491.92776 416.359753,489.70576 C420.146753,487.48476 425.016753,488.75276 427.239753,492.54076 Z M470.920646,117.710406 C473.978369,120.768128 474.043426,125.685253 471.11582,128.822099 L470.920646,129.024114 L398.920646,201.024114 C395.862924,204.081836 390.945799,204.146894 387.808953,201.219288 L387.606938,201.024114 L356.18067,169.597847 C353.056476,166.473652 353.056476,161.408332 356.18067,158.284138 C359.238392,155.226416 364.155518,155.161358 367.292363,158.088964 L367.494379,158.284138 L393.263753,184.05376 L459.606938,117.710406 C462.731132,114.586212 467.796452,114.586212 470.920646,117.710406 Z" id="Combined-Shape" fill="#FFFFFF" fill-rule="nonzero"></path>
        <path d="M645.235753,138.64376 L638.345753,138.64376 L638.345753,114.79276 C638.345753,110.40176 634.786753,106.84276 630.395753,106.84276 L568.913753,106.84276 C564.521753,106.84276 560.963753,110.40276 560.963753,114.79276 L560.963753,138.64376 L551.953753,138.64376 C547.561753,138.64376 544.003753,142.20376 544.003753,146.59376 L544.003753,172.03476 C544.003753,176.42576 547.562753,179.98476 551.953753,179.98476 L560.963753,179.98476 L560.963753,203.83576 C560.963753,208.22676 564.522753,211.78576 568.913753,211.78576 C573.305753,211.78576 576.863753,208.22576 576.863753,203.83576 L576.863753,179.98576 L622.445753,179.98576 L622.445753,294.99976 C622.445753,343.22176 583.213753,382.45276 534.992753,382.45276 L475.100753,382.45276 L475.100753,334.75076 L537.112753,334.75076 C559.031753,334.75076 576.864753,316.91876 576.864753,294.99876 L576.864753,246.23676 C576.864753,241.84576 573.305753,238.28676 568.914753,238.28676 C564.522753,238.28676 560.964753,241.84676 560.964753,246.23676 L560.964753,294.99876 C560.964753,308.15076 550.264753,318.84976 537.113753,318.84976 L475.101753,318.84976 L475.101753,307.71976 C475.101753,303.32876 471.542753,299.76976 467.151753,299.76976 L441.710753,299.76976 C437.318753,299.76976 433.760753,303.32976 433.760753,307.71976 L433.760753,318.84976 L415.736753,318.84976 L415.736753,262.66776 L424.267753,262.66776 C427.738753,274.88776 438.990753,283.86876 452.307753,283.86876 C468.380753,283.86876 481.458753,270.79176 481.458753,254.71776 C481.458753,238.64376 468.380753,225.56676 452.307753,225.56676 C438.990753,225.56676 427.737753,234.54776 424.267753,246.76776 L391.304753,246.76776 C387.833753,234.54776 376.581753,225.56676 363.264753,225.56676 C347.191753,225.56676 334.113753,238.64376 334.113753,254.71776 C334.113753,270.79176 347.191753,283.86876 363.264753,283.86876 C376.581753,283.86876 387.834753,274.88776 391.304753,262.66776 L399.835753,262.66776 L399.835753,318.84976 L381.814753,318.84976 L381.814753,307.71976 C381.814753,303.32876 378.255753,299.76976 373.864753,299.76976 L348.423753,299.76976 C344.031753,299.76976 340.473753,303.32976 340.473753,307.71976 L340.473753,318.84976 L274.220753,318.84976 C217.230753,318.84976 170.866753,365.21376 170.866753,422.20376 L170.866753,458.24476 C170.866753,462.63576 174.425753,466.19476 178.816753,466.19476 C183.208753,466.19476 186.766753,462.63476 186.766753,458.24476 L186.766753,422.20376 C186.766753,373.98176 225.998753,334.75076 274.219753,334.75076 L340.472753,334.75076 L340.472753,382.45276 L272.099753,382.45276 C250.179753,382.45276 232.347753,400.28476 232.347753,422.20476 L232.347753,543.57976 L186.768753,543.57976 L186.768753,500.64776 C186.768753,496.25676 183.209753,492.69776 178.818753,492.69776 C174.426753,492.69776 170.868753,496.25776 170.868753,500.64776 L170.868753,543.57976 L161.858753,543.57976 C157.466753,543.57976 153.908753,547.13976 153.908753,551.52976 L153.908753,576.97076 C153.908753,581.36176 157.467753,584.92076 161.858753,584.92076 L170.868753,584.92076 L170.868753,608.77176 C170.868753,613.16276 174.427753,616.72176 178.818753,616.72176 L240.300753,616.72176 C244.692753,616.72176 248.250753,613.16176 248.250753,608.77176 L248.250753,584.92076 L255.140753,584.92076 C259.532753,584.92076 263.090753,581.36076 263.090753,576.97076 L263.090753,551.52976 C263.090753,547.13876 259.531753,543.57976 255.140753,543.57976 L248.250753,543.57976 L248.250753,422.20476 C248.250753,409.05276 258.950753,398.35376 272.101753,398.35376 L340.474753,398.35376 L340.474753,409.48376 C340.474753,413.87476 344.033753,417.43376 348.424753,417.43376 L373.865753,417.43376 C378.257753,417.43376 381.815753,413.87376 381.815753,409.48376 L381.815753,398.35376 L433.757753,398.35376 L433.757753,409.48376 C433.757753,413.87476 437.316753,417.43376 441.707753,417.43376 L467.148753,417.43376 C471.540753,417.43376 475.098753,413.87376 475.098753,409.48376 L475.098753,398.35376 L534.990753,398.35376 C591.980753,398.35376 638.344753,351.98976 638.344753,294.99976 L638.344753,179.98576 L645.234753,179.98576 C649.626753,179.98576 653.184753,176.42576 653.184753,172.03576 L653.184753,146.59476 C653.184753,142.20376 649.627753,138.64376 645.235753,138.64376 Z M452.308753,241.46776 C459.615753,241.46776 465.559753,247.41176 465.559753,254.71876 C465.559753,262.02576 459.615753,267.96876 452.308753,267.96876 C445.001753,267.96876 439.058753,262.02476 439.058753,254.71876 C439.058753,247.41276 445.001753,241.46776 452.308753,241.46776 Z M363.264753,267.96876 C355.957753,267.96876 350.013753,262.02476 350.013753,254.71876 C350.013753,247.41276 355.957753,241.46776 363.264753,241.46776 C370.571753,241.46776 376.514753,247.41176 376.514753,254.71876 C376.514753,262.02576 370.571753,267.96876 363.264753,267.96876 Z M232.349753,600.82176 L186.768753,600.82176 L186.768753,584.92076 L232.350753,584.92076 L232.350753,600.82176 L232.349753,600.82176 Z M247.190753,569.02076 L169.807753,569.02076 L169.807753,559.48076 L247.190753,559.48076 L247.190753,569.02076 L247.190753,569.02076 Z M365.915753,401.53476 L356.375753,401.53476 L356.375753,315.67176 L365.915753,315.67176 L365.915753,401.53476 Z M433.757753,382.45376 L381.815753,382.45376 L381.815753,334.75176 L433.757753,334.75176 L433.757753,382.45376 Z M459.198753,401.53476 L449.658753,401.53476 L449.658753,315.67176 L459.198753,315.67176 L459.198753,401.53476 Z M576.863753,122.74376 L622.445753,122.74376 L622.445753,138.64476 L576.863753,138.64476 L576.863753,122.74376 Z M637.285753,164.08476 L559.902753,164.08476 L559.902753,154.54476 L637.285753,154.54476 L637.285753,164.08476 Z" id="Shape" fill="#C79340" fill-rule="nonzero"></path>
    </g>
</svg>